<mxfile host="app.diagrams.net" modified="2023-05-08T16:18:24.558Z" agent="Mozilla/5.0 (Macintosh; Intel Mac OS X 10_15_7) AppleWebKit/537.36 (KHTML, like Gecko) Chrome/112.0.0.0 Safari/537.36" version="21.2.9" etag="xg2LLf90DBYi2q-CoW60" type="github">
  <diagram name="Page-1" id="JHTogIhBlTVg59LN8ucT">
    <mxGraphModel>
      <root>
        <mxCell id="0" />
        <mxCell id="1" parent="0" />
      </root>
    </mxGraphModel>
  </diagram>
</mxfile>
